<svg xmlns="http://www.w3.org/2000/svg" width="512" height="512" viewBox="0 0 512 512" version="1.1"><path d="M 224 1.576 C 213.733 4.272, 204.216 9.744, 196.513 17.380 C 192.562 21.296, 188.059 26.862, 186.506 29.750 L 183.682 35 177.390 35 C 173.930 35, 168.714 35.488, 165.799 36.084 C 158.098 37.660, 143.328 45.138, 137.176 50.577 C 126.245 60.241, 117.896 75.753, 116.226 89.500 L 115.496 95.500 104.498 96.153 C 85.851 97.261, 72.365 103.498, 59.829 116.811 C 52.245 124.864, 47.644 133.163, 44.975 143.596 C 42.588 152.930, 42.383 166.210, 44.500 174.339 C 45.325 177.506, 46 180.463, 46 180.910 C 46 181.357, 42.573 184.347, 38.385 187.555 C 25.682 197.285, 14.718 212.293, 9.413 227.213 C 3.157 244.809, 3.400 268.777, 10.009 285.875 C 16.460 302.563, 28.079 317.599, 41.713 326.903 L 46.580 330.224 44.848 336.862 C 42.671 345.202, 42.539 359.411, 44.557 368 C 47.227 379.364, 52.500 388.566, 61.468 397.514 C 74.327 410.345, 87.140 415.943, 105 416.536 L 115.500 416.884 116.241 422.656 C 117.993 436.308, 123.667 447.632, 134 458.095 C 145.752 469.996, 158.632 475.987, 175.674 477.479 L 183.847 478.195 187.948 484.536 C 195.908 496.844, 209.891 506.781, 224.460 510.485 C 232.089 512.424, 245.892 512.427, 253.540 510.491 C 274.392 505.213, 291.084 488.948, 297.660 467.500 C 299.421 461.757, 299.500 452.702, 299.492 256 C 299.485 59.637, 299.403 50.233, 297.653 44.500 C 291.112 23.080, 274.394 6.787, 253.540 1.509 C 246.113 -0.371, 231.286 -0.338, 224 1.576 M 225.798 16.931 C 215.850 20.112, 207.102 26.431, 201.228 34.680 L 199.010 37.794 207.755 42.111 C 224.628 50.440, 237.675 67.215, 241.501 85.500 C 244.088 97.864, 243.262 103.189, 238.477 105.009 C 232.579 107.251, 228.014 102.503, 227.989 94.101 C 227.949 80.851, 215.480 62.341, 201.972 55.479 C 183.143 45.914, 161.426 48.972, 146.249 63.325 C 135.829 73.180, 131 84.694, 131 99.681 C 131 111.937, 129.913 113.436, 121.616 112.619 C 118.252 112.288, 112.568 111.735, 108.984 111.391 C 92.678 109.824, 73.523 120.194, 64.601 135.418 C 58.771 145.367, 56.487 160.104, 59.141 170.647 C 60.414 175.701, 59.701 175.580, 70.500 172.566 C 73.800 171.645, 80.582 170.630, 85.570 170.310 C 94.586 169.731, 94.654 169.744, 96.820 172.499 C 99.301 175.652, 99.464 176.887, 97.865 180.398 C 96.414 183.581, 95.349 183.959, 84.679 185.075 C 56.163 188.059, 32.504 206.758, 23.412 233.500 C 19.788 244.158, 18.961 260.234, 21.460 271.465 C 24.983 287.298, 35.834 303.836, 49.085 313.562 L 53.946 317.131 60.036 310.621 C 67.518 302.623, 75.726 297, 79.919 297 C 83.777 297, 87 300.099, 87 303.809 C 87 307.293, 85.740 308.891, 79.902 312.804 C 62.790 324.277, 54.524 345.236, 59.531 364.458 C 68.147 397.535, 105.415 411.731, 134.322 392.948 C 141.089 388.551, 144.994 387.994, 148 391 C 152.888 395.888, 148.975 402.210, 137.337 408.227 L 131.007 411.500 131.004 416.346 C 130.996 426.908, 136.532 439.246, 145.143 447.857 C 154.671 457.386, 166.023 462, 179.935 462 C 191.942 462, 201.462 458.485, 211.603 450.308 C 216.785 446.130, 220.990 445.900, 223.927 449.635 C 225.067 451.084, 226 452.863, 226 453.588 C 226 458.329, 218.467 465.172, 207.250 470.619 C 203.262 472.555, 200 474.495, 200 474.929 C 200 476.664, 206.853 484.225, 211.786 487.931 C 232.569 503.548, 263.159 497.990, 277.162 476.054 C 278.723 473.609, 280 471.247, 280 470.804 C 280 470.362, 277.075 470, 273.500 470 C 265.792 470, 263 468.047, 263 462.655 C 263 457.286, 265.641 455.713, 275.528 455.194 L 284 454.749 284 427.375 L 284 400 271.250 400.006 C 264.238 400.009, 256.872 400.463, 254.882 401.016 C 247.060 403.189, 239.663 410.854, 238.492 418 C 237.145 426.223, 236.020 428.749, 233.180 429.926 C 229.501 431.449, 225.378 429.923, 223.796 426.452 C 222.239 423.035, 223.939 412.858, 227.150 406.373 C 230.323 399.966, 238.237 392.239, 244.619 389.317 C 251.502 386.166, 259.025 385.013, 272.750 385.006 L 284 385 284 333.500 L 284 282 222.111 282 C 163.455 282, 160.103 281.904, 157.944 280.156 C 154.937 277.721, 154.897 272.659, 157.861 269.694 L 160.055 267.500 222.027 267.228 L 284 266.956 284 203.978 L 284 141 253.750 140.994 C 221.177 140.988, 214.687 140.393, 206.679 136.681 C 194.713 131.133, 185.690 118.423, 184.348 105.219 C 183.771 99.550, 183.934 98.699, 186.029 96.469 C 188.660 93.668, 192.518 93.273, 195.672 95.483 C 197.199 96.552, 198.117 98.851, 198.967 103.732 C 200.736 113.889, 205.259 119.962, 214 123.919 C 218.230 125.834, 220.467 125.957, 251.250 125.978 L 284 126 284 101 L 284 76 276.135 76 C 266.543 76, 263 73.977, 263 68.500 C 263 63.023, 266.543 61, 276.135 61 L 284 61 284 56.657 C 284 51.661, 281.083 42.524, 277.580 36.546 C 274.635 31.522, 267.029 24.273, 260.985 20.732 C 251.318 15.068, 236.598 13.478, 225.798 16.931 M 331.594 44.947 C 326.148 47.143, 321.968 50.720, 318.681 56 C 316.862 58.920, 316.501 60.991, 316.501 68.500 C 316.500 76.501, 316.803 78.015, 319.229 82.142 C 324.495 91.100, 335.937 96.065, 346.229 93.857 C 370.343 88.686, 374.506 56.972, 352.543 45.767 C 346.790 42.832, 337.721 42.477, 331.594 44.947 M 404.463 58.591 C 392.083 62.987, 385.103 77.411, 388.918 90.713 C 391.307 99.043, 402.896 107.944, 411.610 108.140 C 418.206 108.288, 422.697 107.222, 426.973 104.491 C 434.868 99.450, 438.956 91.948, 438.956 82.500 C 438.956 64.800, 421.349 52.596, 404.463 58.591 M 172.844 65.394 C 160.382 69.845, 152.564 79.050, 150.524 91.675 C 149.718 96.665, 151.077 99.699, 154.745 101.093 C 159.539 102.916, 165 98.795, 165 93.354 C 165 90.158, 168.467 84.674, 172.194 81.974 C 174.634 80.207, 177.970 78.929, 181.275 78.495 C 188.570 77.538, 191 75.784, 191 71.477 C 191 66.251, 188.187 63.990, 181.750 64.044 C 178.863 64.068, 174.855 64.675, 172.844 65.394 M 448.718 132.376 C 437.509 136.556, 431.136 145.257, 431.049 156.500 C 430.988 164.543, 432.668 168.702, 438.324 174.511 C 446.609 183.021, 456.571 184.937, 467.469 180.117 C 476.527 176.110, 481.942 167.564, 481.978 157.218 C 482.014 146.900, 477.636 139.297, 468.933 134.560 C 462.797 131.220, 454.284 130.301, 448.718 132.376 M 99.250 133.946 C 96.414 136.633, 96.232 141.995, 98.897 144.406 C 99.940 145.350, 103.496 146.505, 106.800 146.972 C 114.882 148.114, 120.656 150.844, 125.687 155.901 C 140.703 170.994, 136.819 195.438, 117.904 204.890 C 114.481 206.601, 110.515 208.003, 109.090 208.006 C 104.626 208.015, 99.066 210.009, 98.012 211.978 C 94.842 217.901, 98.454 223, 105.818 223 C 123.915 223, 142.148 208.950, 147.724 190.709 C 149.893 183.616, 149.827 170.875, 147.588 164.206 C 141.419 145.834, 126.978 134.383, 107.500 132.419 C 102.263 131.891, 101.214 132.085, 99.250 133.946 M 193.619 179.290 C 191.918 180.991, 191.156 183.235, 190.657 188.007 C 189.298 201.010, 180.524 213.677, 168.987 219.291 C 165.969 220.759, 160.148 222.430, 156.052 223.005 C 147.207 224.245, 145 225.861, 145 231.098 C 145 235.832, 147.724 238, 153.673 238 C 177.038 238, 199.483 219.080, 204.566 195.099 C 206.270 187.061, 206.325 184.806, 204.890 181.657 C 203.777 179.216, 200.217 177, 197.407 177 C 196.583 177, 194.879 178.031, 193.619 179.290 M 231.127 181.873 C 228.493 184.507, 228.357 189.357, 230.848 191.848 C 231.864 192.864, 234.605 194.001, 236.940 194.374 C 243.665 195.450, 248.632 198.516, 251.457 203.336 C 255.692 210.564, 254.698 218.575, 248.807 224.683 C 245.486 228.127, 242.625 229.496, 236.694 230.480 C 225.802 232.287, 226.750 245, 237.777 245 C 248.419 245, 261.517 236.072, 266.088 225.702 C 269.505 217.952, 269.418 206.433, 265.887 199 C 260.836 188.367, 250.634 181.142, 239.396 180.240 C 234.080 179.813, 232.967 180.033, 231.127 181.873 M 334.479 214.358 C 328.884 216.963, 323.784 221.605, 321.294 226.356 C 318.742 231.229, 318.982 244.355, 321.719 249.568 C 326.276 258.248, 334.738 263.377, 344.500 263.377 C 351.531 263.377, 356.617 261.392, 361.817 256.618 C 367.765 251.157, 369.951 246.156, 369.978 237.946 C 370.041 219.154, 351.144 206.597, 334.479 214.358 M 459 234.121 C 454.019 235.617, 447.738 240.700, 443.845 246.387 C 440.764 250.888, 440.502 251.876, 440.523 258.887 C 440.541 264.724, 441.049 267.449, 442.701 270.568 C 449.424 283.264, 464.809 288.231, 477.608 281.839 C 492.877 274.213, 496.296 253.540, 484.377 240.911 C 478.844 235.047, 466.720 231.804, 459 234.121 M 62.321 236.189 C 54.805 239.823, 59.104 259.199, 69.799 269.895 C 79.288 279.383, 87.419 281.971, 107.795 281.988 C 121.648 282, 122.167 281.924, 124.545 279.545 C 127.278 276.812, 127.534 275.267, 125.862 271.597 C 124.186 267.917, 120.172 267.002, 105.601 266.978 C 94.591 266.960, 91.782 266.631, 88 264.919 C 79.440 261.044, 74.394 254.120, 73.281 244.722 C 72.339 236.773, 68.039 233.424, 62.321 236.189 M 391.500 283.867 C 381.352 288.493, 376.778 295.808, 376.778 307.410 C 376.778 315.811, 378.555 320.488, 383.703 325.636 C 388.447 330.381, 392.508 332.191, 399.703 332.768 C 418.902 334.309, 432.564 315.857, 425.642 297.733 C 423.491 292.099, 415.507 284.513, 410.169 283.030 C 404.484 281.451, 395.962 281.833, 391.500 283.867 M 116.746 324.086 C 101.638 327.646, 89.160 342.301, 88.175 357.640 C 87.840 362.869, 88.094 364.094, 89.890 365.890 C 92.517 368.517, 97.367 368.633, 99.870 366.130 C 100.912 365.088, 102.213 361.578, 102.807 358.203 C 104.152 350.568, 108.006 344.669, 113.922 341.192 L 118.500 338.500 155.647 338 C 190.378 337.533, 192.930 337.376, 194.897 335.595 C 197.739 333.020, 197.696 327.727, 194.811 325.039 C 192.688 323.061, 191.542 323.003, 156.561 323.100 C 136.728 323.156, 118.811 323.599, 116.746 324.086 M 215.189 325.039 C 212.474 327.568, 212.353 331.979, 214.912 335.139 C 216.796 337.466, 217.088 337.500, 235.307 337.500 C 252.079 337.500, 253.985 337.324, 255.895 335.595 C 258.642 333.109, 258.695 327.695, 256 325 C 254.146 323.146, 252.667 323, 235.689 323 C 218.643 323, 217.226 323.141, 215.189 325.039 M 473.718 324.437 C 467.926 326.503, 463.592 329.881, 460.025 335.108 C 455.806 341.292, 454.781 350.521, 457.519 357.689 C 467.676 384.283, 507.200 377.247, 507.200 348.844 C 507.200 331.481, 489.710 318.732, 473.718 324.437 M 379 349.079 C 373.559 351.539, 368.481 356.228, 365.958 361.121 C 364.485 363.977, 364.134 366.625, 364.295 373.654 C 364.490 382.129, 364.675 382.810, 368.067 387.533 C 379.080 402.868, 402.409 401.525, 411.382 385.040 C 415.021 378.353, 415.724 371.696, 413.498 364.995 C 408.740 350.669, 392.279 343.075, 379 349.079 M 156.017 357.286 C 152.500 359.065, 151.154 363.403, 153.064 366.805 C 154.578 369.502, 155.473 369.905, 164.500 371.960 C 171.070 373.455, 175.869 377.366, 179.250 383.979 C 182.555 390.445, 182.751 395.746, 179.916 402 C 176.199 410.198, 170.069 414.612, 160.891 415.699 C 153.952 416.521, 150.533 421.014, 152.650 426.529 C 153.739 429.369, 158.507 430.732, 164.501 429.919 C 184.818 427.162, 199.097 407.907, 195.857 387.638 C 193.422 372.402, 182.261 360.647, 167.200 357.455 C 159.048 355.727, 159.096 355.728, 156.017 357.286 M 442.951 402.340 C 433.722 404.874, 427.509 410.471, 424.520 418.944 C 420.340 430.790, 426.121 444.374, 438 450.620 C 443.167 453.337, 455.154 453.167, 460.568 450.299 C 479.845 440.091, 479.210 412.527, 459.500 403.941 C 453.769 401.445, 448.180 400.904, 442.951 402.340 M 375.500 442.671 C 371.963 443.655, 364.245 449.386, 361.091 453.370 C 348.529 469.239, 361.135 493.333, 382 493.333 C 395.891 493.333, 408 481.413, 408 467.739 C 408 459.142, 401.536 448.845, 393.598 444.795 C 389.573 442.741, 379.496 441.559, 375.500 442.671" stroke="none" fill="#fb8374" fill-rule="evenodd"/><path d="M 225.798 16.931 C 215.850 20.112, 207.102 26.431, 201.228 34.680 L 199.010 37.794 207.755 42.111 C 224.628 50.440, 237.675 67.215, 241.501 85.500 C 244.088 97.864, 243.262 103.189, 238.477 105.009 C 232.579 107.251, 228.014 102.503, 227.989 94.101 C 227.949 80.851, 215.480 62.341, 201.972 55.479 C 183.143 45.914, 161.426 48.972, 146.249 63.325 C 135.829 73.180, 131 84.694, 131 99.681 C 131 111.937, 129.913 113.436, 121.616 112.619 C 118.252 112.288, 112.568 111.735, 108.984 111.391 C 92.678 109.824, 73.523 120.194, 64.601 135.418 C 58.771 145.367, 56.487 160.104, 59.141 170.647 C 60.414 175.701, 59.701 175.580, 70.500 172.566 C 73.800 171.645, 80.582 170.630, 85.570 170.310 C 94.586 169.731, 94.654 169.744, 96.820 172.499 C 99.301 175.652, 99.464 176.887, 97.865 180.398 C 96.414 183.581, 95.349 183.959, 84.679 185.075 C 56.163 188.059, 32.504 206.758, 23.412 233.500 C 19.788 244.158, 18.961 260.234, 21.460 271.465 C 24.983 287.298, 35.834 303.836, 49.085 313.562 L 53.946 317.131 60.036 310.621 C 67.518 302.623, 75.726 297, 79.919 297 C 83.777 297, 87 300.099, 87 303.809 C 87 307.293, 85.740 308.891, 79.902 312.804 C 62.790 324.277, 54.524 345.236, 59.531 364.458 C 68.147 397.535, 105.415 411.731, 134.322 392.948 C 141.089 388.551, 144.994 387.994, 148 391 C 152.888 395.888, 148.975 402.210, 137.337 408.227 L 131.007 411.500 131.004 416.346 C 130.996 426.908, 136.532 439.246, 145.143 447.857 C 154.671 457.386, 166.023 462, 179.935 462 C 191.942 462, 201.462 458.485, 211.603 450.308 C 216.785 446.130, 220.990 445.900, 223.927 449.635 C 225.067 451.084, 226 452.863, 226 453.588 C 226 458.329, 218.467 465.172, 207.250 470.619 C 203.262 472.555, 200 474.495, 200 474.929 C 200 476.664, 206.853 484.225, 211.786 487.931 C 232.569 503.548, 263.159 497.990, 277.162 476.054 C 278.723 473.609, 280 471.247, 280 470.804 C 280 470.362, 277.075 470, 273.500 470 C 265.792 470, 263 468.047, 263 462.655 C 263 457.286, 265.641 455.713, 275.528 455.194 L 284 454.749 284 427.375 L 284 400 271.250 400.006 C 264.238 400.009, 256.872 400.463, 254.882 401.016 C 247.060 403.189, 239.663 410.854, 238.492 418 C 237.145 426.223, 236.020 428.749, 233.180 429.926 C 229.501 431.449, 225.378 429.923, 223.796 426.452 C 222.239 423.035, 223.939 412.858, 227.150 406.373 C 230.323 399.966, 238.237 392.239, 244.619 389.317 C 251.502 386.166, 259.025 385.013, 272.750 385.006 L 284 385 284 333.500 L 284 282 222.111 282 C 163.455 282, 160.103 281.904, 157.944 280.156 C 154.937 277.721, 154.897 272.659, 157.861 269.694 L 160.055 267.500 222.027 267.228 L 284 266.956 284 203.978 L 284 141 253.750 140.994 C 221.177 140.988, 214.687 140.393, 206.679 136.681 C 194.713 131.133, 185.690 118.423, 184.348 105.219 C 183.771 99.550, 183.934 98.699, 186.029 96.469 C 188.660 93.668, 192.518 93.273, 195.672 95.483 C 197.199 96.552, 198.117 98.851, 198.967 103.732 C 200.736 113.889, 205.259 119.962, 214 123.919 C 218.230 125.834, 220.467 125.957, 251.250 125.978 L 284 126 284 101 L 284 76 276.135 76 C 266.543 76, 263 73.977, 263 68.500 C 263 63.023, 266.543 61, 276.135 61 L 284 61 284 56.657 C 284 51.661, 281.083 42.524, 277.580 36.546 C 274.635 31.522, 267.029 24.273, 260.985 20.732 C 251.318 15.068, 236.598 13.478, 225.798 16.931 M 299 69 L 299 77 307.750 77 L 316.500 77 316.500 69 L 316.500 61 307.750 61 L 299 61 299 69 M 172.844 65.394 C 160.382 69.845, 152.564 79.050, 150.524 91.675 C 149.718 96.665, 151.077 99.699, 154.745 101.093 C 159.539 102.916, 165 98.795, 165 93.354 C 165 90.158, 168.467 84.674, 172.194 81.974 C 174.634 80.207, 177.970 78.929, 181.275 78.495 C 188.570 77.538, 191 75.784, 191 71.477 C 191 66.251, 188.187 63.990, 181.750 64.044 C 178.863 64.068, 174.855 64.675, 172.844 65.394 M 377.243 111.250 L 362.994 125.500 330.997 125.790 L 299 126.080 299 133.540 L 299 141 332.032 141 C 359.477 141, 365.693 140.740, 368.782 139.462 C 371.074 138.514, 378.522 131.921, 388.203 122.271 L 403.906 106.618 399.083 103.370 C 396.431 101.584, 393.991 99.420, 393.662 98.561 C 393.332 97.703, 392.709 97, 392.277 97 C 391.845 97, 385.079 103.412, 377.243 111.250 M 99.250 133.946 C 96.414 136.633, 96.232 141.995, 98.897 144.406 C 99.940 145.350, 103.496 146.505, 106.800 146.972 C 114.882 148.114, 120.656 150.844, 125.687 155.901 C 140.703 170.994, 136.819 195.438, 117.904 204.890 C 114.481 206.601, 110.515 208.003, 109.090 208.006 C 104.626 208.015, 99.066 210.009, 98.012 211.978 C 94.842 217.901, 98.454 223, 105.818 223 C 123.915 223, 142.148 208.950, 147.724 190.709 C 149.893 183.616, 149.827 170.875, 147.588 164.206 C 141.419 145.834, 126.978 134.383, 107.500 132.419 C 102.263 131.891, 101.214 132.085, 99.250 133.946 M 299 179.468 L 299 186.937 340.995 187.218 L 382.989 187.500 412.986 217.485 C 442.607 247.094, 443.002 247.442, 444.553 245.228 C 446.723 242.130, 452.289 237.010, 453.494 237.005 C 454.040 237.002, 440.765 223.229, 423.994 206.397 C 404.208 186.541, 392.095 175.136, 389.500 173.919 C 385.784 172.177, 382.425 172.042, 342.250 172.022 L 299 172 299 179.468 M 193.619 179.290 C 191.918 180.991, 191.156 183.235, 190.657 188.007 C 189.298 201.010, 180.524 213.677, 168.987 219.291 C 165.969 220.759, 160.148 222.430, 156.052 223.005 C 147.207 224.245, 145 225.861, 145 231.098 C 145 235.832, 147.724 238, 153.673 238 C 177.038 238, 199.483 219.080, 204.566 195.099 C 206.270 187.061, 206.325 184.806, 204.890 181.657 C 203.777 179.216, 200.217 177, 197.407 177 C 196.583 177, 194.879 178.031, 193.619 179.290 M 231.127 181.873 C 228.493 184.507, 228.357 189.357, 230.848 191.848 C 231.864 192.864, 234.605 194.001, 236.940 194.374 C 243.665 195.450, 248.632 198.516, 251.457 203.336 C 255.692 210.564, 254.698 218.575, 248.807 224.683 C 245.486 228.127, 242.625 229.496, 236.694 230.480 C 225.802 232.287, 226.750 245, 237.777 245 C 248.419 245, 261.517 236.072, 266.088 225.702 C 269.505 217.952, 269.418 206.433, 265.887 199 C 260.836 188.367, 250.634 181.142, 239.396 180.240 C 234.080 179.813, 232.967 180.033, 231.127 181.873 M 299 238 L 299 246 309.263 246 L 319.526 246 319.526 238 L 319.526 230 309.263 230 L 299 230 299 238 M 62.321 236.189 C 54.805 239.823, 59.104 259.199, 69.799 269.895 C 79.288 279.383, 87.419 281.971, 107.795 281.988 C 121.648 282, 122.167 281.924, 124.545 279.545 C 127.278 276.812, 127.534 275.267, 125.862 271.597 C 124.186 267.917, 120.172 267.002, 105.601 266.978 C 94.591 266.960, 91.782 266.631, 88 264.919 C 79.440 261.044, 74.394 254.120, 73.281 244.722 C 72.339 236.773, 68.039 233.424, 62.321 236.189 M 299 307.500 L 299 315 337.889 315 L 376.778 315 376.778 307.500 L 376.778 300 337.889 300 L 299 300 299 307.500 M 116.746 324.086 C 101.638 327.646, 89.160 342.301, 88.175 357.640 C 87.840 362.869, 88.094 364.094, 89.890 365.890 C 92.517 368.517, 97.367 368.633, 99.870 366.130 C 100.912 365.088, 102.213 361.578, 102.807 358.203 C 104.152 350.568, 108.006 344.669, 113.922 341.192 L 118.500 338.500 155.647 338 C 190.378 337.533, 192.930 337.376, 194.897 335.595 C 197.739 333.020, 197.696 327.727, 194.811 325.039 C 192.688 323.061, 191.542 323.003, 156.561 323.100 C 136.728 323.156, 118.811 323.599, 116.746 324.086 M 215.189 325.039 C 212.474 327.568, 212.353 331.979, 214.912 335.139 C 216.796 337.466, 217.088 337.500, 235.307 337.500 C 252.079 337.500, 253.985 337.324, 255.895 335.595 C 258.642 333.109, 258.695 327.695, 256 325 C 254.146 323.146, 252.667 323, 235.689 323 C 218.643 323, 217.226 323.141, 215.189 325.039 M 156.017 357.286 C 152.500 359.065, 151.154 363.403, 153.064 366.805 C 154.578 369.502, 155.473 369.905, 164.500 371.960 C 171.070 373.455, 175.869 377.366, 179.250 383.979 C 182.555 390.445, 182.751 395.746, 179.916 402 C 176.199 410.198, 170.069 414.612, 160.891 415.699 C 153.952 416.521, 150.533 421.014, 152.650 426.529 C 153.739 429.369, 158.507 430.732, 164.501 429.919 C 184.818 427.162, 199.097 407.907, 195.857 387.638 C 193.422 372.402, 182.261 360.647, 167.200 357.455 C 159.048 355.727, 159.096 355.728, 156.017 357.286 M 299 373.014 L 299 381.027 331.593 380.764 L 364.186 380.500 364.343 372.750 L 364.500 364.999 331.750 365 L 299 365 299 373.014 M 299 428 L 299 436 320.135 436 L 341.269 436 350.717 445.250 L 360.165 454.500 362.332 451.856 C 363.525 450.402, 366.169 448.094, 368.210 446.728 L 371.919 444.244 360.635 433.217 C 352.224 424.999, 348.351 421.913, 345.425 421.101 C 343.163 420.473, 332.497 420.009, 320.250 420.006 L 299 420 299 428" stroke="none" fill="#ed6448" fill-rule="evenodd"/></svg>